# xmcd
#
# Track frame offsets:
#	150
#	15761
#	30061
#	46957
#	63511
#	75570
#	87057
#	102320
#	119012
#	137565
#	151306
#	167085
#	179544
#	191041
#	202820
#	218281
#	233955
#	246171
#	266647
#	280235
#
# Disc length: 3954 seconds
#
# Revision: 1
# Processed by: cddbd v1.5PL3 Copyright (c) Steve Scherf et al.
# Submitted via: audiograbber 1.83.01
#
DISCID=010f7014
DTITLE=Alegres De La Sierra - Amargo Dolor
DYEAR=1900
DGENRE=Latin
TTITLE0=Amargo Dolor
TTITLE1=Arboles De La Barranca
TTITLE2=Se Te Parte El Alma
TTITLE3=Me Gusta Tener De A Dos
TTITLE4=Mi Casita
TTITLE5=Buscando Novia
TTITLE6=Las Uvas
TTITLE7=Paloma Sin Nido
TTITLE8=Te Enamorado
TTITLE9=Mejor Solito
TTITLE10=Somos Ajenos
TTITLE11=Por Mi Que Se Vaya
TTITLE12=No Debemos Callas
TTITLE13=Morenita Encantadora
TTITLE14=A Mi Me Perteneces
TTITLE15=Que Sacrificio
TTITLE16=Alegre Me Ando Paseando
TTITLE17=Laurita Garza
TTITLE18=Lloras
TTITLE19=Cangrejito Playero
EXTD=
EXTT0=
EXTT1=
EXTT2=
EXTT3=
EXTT4=
EXTT5=
EXTT6=
EXTT7=
EXTT8=
EXTT9=
EXTT10=
EXTT11=
EXTT12=
EXTT13=
EXTT14=
EXTT15=
EXTT16=
EXTT17=
EXTT18=
EXTT19=
PLAYORDER=
